<svg width="60" height="60" viewBox="0 0 60 60" fill="none" xmlns="http://www.w3.org/2000/svg">
<g clip-path="url(#clip0_56_2137)">
<path d="M9.59999 28.8599C9.24003 28.8599 8.94004 28.5599 8.94004 28.2C8.88008 12.66 18.24 0 29.7 0C41.16 0 50.52 12.6 50.52 28.08C50.52 28.4399 50.22 28.7399 49.8601 28.7399C49.5001 28.7399 49.2001 28.4399 49.2001 28.08C49.2001 13.38 40.4401 1.38 29.7001 1.38C18.9601 1.38 10.2601 13.38 10.2601 28.2C10.2601 28.5599 9.96014 28.8599 9.60019 28.8599H9.59999Z" fill="#BBBBBB"/>
<path d="M52.44 40.5001H23.46C23.1 40.5001 22.8001 40.2001 22.8001 39.8401C22.8001 39.4801 23.1001 39.1801 23.46 39.1801H52.5C53.9401 39.1801 55.1401 37.9801 55.1401 36.5401C55.1401 35.1 53.9401 33.9 52.5 33.9H7.56C6.11995 33.9 4.91995 35.1 4.91995 36.5401C4.91995 37.9801 6.11995 39.1801 7.56 39.1801H12.4799C12.8399 39.1801 13.1399 39.4801 13.1399 39.8401C13.1399 40.2001 12.8399 40.5001 12.4799 40.5001H7.56C5.3401 40.5001 3.5401 38.7 3.5401 36.4801C3.5401 34.2602 5.3401 32.4602 7.56 32.4602H52.5C54.7199 32.4602 56.5199 34.2602 56.5199 36.4801C56.4599 38.7 54.66 40.5001 52.44 40.5001Z" fill="#BBBBBB"/>
<path d="M30.3 60.0001H29.7H29.6401C18.78 60.0001 9.36005 51.7801 6.84005 39.9601C6.78009 39.6001 7.02013 39.2402 7.3801 39.12C7.74006 39.0601 8.1 39.3001 8.22015 39.6601C10.6201 50.8201 19.4402 58.6201 29.7002 58.6201H29.7601H30.3002H30.3601C40.6201 58.6201 49.4401 50.8201 51.8401 39.6601C51.9001 39.3001 52.26 39.0601 52.6802 39.12C53.0401 39.18 53.2802 39.5399 53.2202 39.9601C50.58 51.7801 41.2197 60.0001 30.2997 60.0001H30.3Z" fill="#BBBBBB"/>
<path d="M51.96 33.8999C51.6001 33.8999 51.3001 33.5999 51.3001 33.2399V30.8999V28.7999H48.4199C48.36 29.1598 48.4199 29.88 48.4199 30.8399V33.2399C48.4199 33.5999 48.1199 33.8999 47.76 33.8999C47.4 33.8999 47.1 33.5999 47.1 33.2399V30.8999C47.1 28.68 47.1 28.1399 47.46 27.78C47.76 27.48 48.12 27.48 48.2401 27.48H51.5401C51.66 27.48 52.0202 27.48 52.3202 27.78C52.7402 28.1999 52.7402 28.68 52.6802 30.9601V33.3001C52.6802 33.5999 52.3802 33.8999 51.9601 33.8999L51.96 33.8999Z" fill="#BBBBBB"/>
<path d="M11.76 33.8999C11.4 33.8999 11.1 33.5999 11.1 33.2399V30.8999V28.8598H8.15999V30.8999V33.2399C8.15999 33.5999 7.85999 33.8999 7.50004 33.8999C7.14009 33.8999 6.84009 33.5999 6.84009 33.2399V30.8999C6.84009 28.7399 6.84009 28.1999 7.20005 27.78C7.50005 27.48 7.86 27.48 7.98015 27.48H11.3401C11.46 27.48 11.8202 27.48 12.1202 27.78C12.5401 28.1999 12.5401 28.62 12.4802 30.8999V33.2399C12.42 33.5999 12.12 33.8999 11.7601 33.8999H11.76Z" fill="#BBBBBB"/>
<path d="M25.68 33.8999C25.32 33.8999 25.02 33.5999 25.02 33.24L25.0198 22.02C25.0198 20.3399 25.7999 18.96 27.2397 18.1799C28.9198 17.22 31.1397 17.22 32.8197 18.1799C34.2597 19.02 35.0396 20.3399 35.0396 22.02V33.18C35.0396 33.5399 34.7396 33.8399 34.3796 33.8399C34.0197 33.8399 33.7197 33.5399 33.7197 33.18V22.02C33.7197 20.52 32.8797 19.7399 32.2197 19.32C30.9598 18.6001 29.2197 18.6001 28.0197 19.32C27.3598 19.7399 26.5197 20.52 26.5197 22.02V33.18C26.3998 33.6001 26.0998 33.9 25.6799 33.9L25.68 33.8999Z" fill="#BBBBBB"/>
<path d="M42.3 33.8999C41.94 33.8999 41.6401 33.5999 41.6401 33.24V24.24C41.6401 23.28 40.9801 22.44 40.0202 22.3201C38.1602 22.0201 36.3003 22.0201 34.5002 22.3201C34.1402 22.3801 33.7803 22.14 33.7201 21.78C33.6601 21.4201 33.9001 21.0601 34.2601 21C36.2402 20.64 38.28 20.64 40.2601 21C41.88 21.2999 43.0201 22.68 43.0201 24.2999V33.2399C42.9599 33.5999 42.6599 33.8999 42.3 33.8999L42.3 33.8999Z" fill="#BBBBBB"/>
<path d="M17.64 33.8999C17.34 33.8999 17.04 33.7199 16.9801 33.4199C15.4201 27.7199 17.64 22.6199 20.64 21.1199C22.6201 20.1 24.6599 20.7599 26.28 22.8C26.52 23.1 26.4601 23.5199 26.1601 23.7599C25.8601 24 25.4402 23.94 25.2001 23.64C24.0001 22.0801 22.62 21.6599 21.2402 22.3201C18.7203 23.5801 16.9803 28.2001 18.3002 33.0601C18.4201 33.4201 18.1802 33.78 17.8201 33.9001C17.7599 33.9 17.7 33.9 17.64 33.9L17.64 33.8999Z" fill="#BBBBBB"/>
<path d="M31.98 19.1401C31.62 19.1401 31.32 18.8401 31.32 18.4801V16.1401C31.32 15.4202 30.72 14.8801 30.0601 14.8801C29.3402 14.8801 28.8001 15.4801 28.8001 16.1401V18.4801C28.8001 18.8401 28.5001 19.1401 28.1402 19.1401C27.7802 19.1401 27.4802 18.8401 27.4802 18.4801V16.1401C27.4802 14.7 28.6802 13.5 30.1203 13.5C31.5603 13.5 32.7603 14.7 32.7603 16.1401V18.4801C32.64 18.8401 32.34 19.1401 31.9801 19.1401H31.98Z" fill="#BBBBBB"/>
</g>
<defs>
<clipPath id="clip0_56_2137">
<rect width="60" height="60" fill="white"/>
</clipPath>
</defs>
</svg>
