<svg width="60" height="60" viewBox="0 0 60 60" fill="none" xmlns="http://www.w3.org/2000/svg">
<g clip-path="url(#clip0_56_2164)">
<path d="M30 59.46C29.94 59.46 29.8801 59.46 29.8199 59.4L0.41992 49.92C0.17988 49.8601 0 49.62 0 49.32V10.8C0 10.62 0.11992 10.3801 0.24004 10.26C0.42012 10.1401 0.6 10.0799 0.78009 10.1401L30.1201 19.6201C30.48 19.74 30.6601 20.1001 30.54 20.4002C30.4201 20.7601 30.0599 20.9402 29.7599 20.8201L1.25991 11.6401V48.8401L30.1799 58.2001C30.5399 58.32 30.72 58.6802 30.5998 58.9802C30.5399 59.2802 30.2399 59.4601 29.9998 59.4601L30 59.46Z" fill="#BBBBBB"/>
<path d="M30 59.46C29.8801 59.46 29.76 59.4 29.6401 59.3401C29.46 59.2202 29.4 59.0401 29.4 58.8V20.28C29.4 19.98 29.5801 19.74 29.8199 19.68L59.1599 10.2C59.34 10.1401 59.5799 10.2 59.7 10.32C59.8801 10.4399 59.94 10.62 59.94 10.86V49.44C59.94 49.74 59.76 49.9801 59.5201 50.04L45.8401 54.4801C45.66 54.54 45.4202 54.4801 45.3001 54.4201C45.12 54.3002 45.06 54.1201 45.06 53.94V37.68L37.08 40.38V56.76C37.08 57.06 36.8999 57.3001 36.6601 57.36L30.1801 59.3999C30.12 59.4598 30.06 59.4598 30 59.4598V59.46ZM30.66 20.76V57.96L35.88 56.2799L35.8802 39.8999C35.8802 39.5999 36.0602 39.3599 36.3001 39.2999L45.5401 36.18C45.7202 36.12 45.96 36.12 46.0801 36.24C46.2602 36.3599 46.3202 36.54 46.3202 36.78V52.86L58.7402 48.8401V11.6401L30.66 20.76Z" fill="#BBBBBB"/>
<path d="M33.18 29.0999C32.94 29.0999 32.64 28.9198 32.58 28.6799C32.4601 28.32 32.64 28.02 32.9999 27.8998L59.1599 19.1998C59.5198 19.0799 59.8198 19.2598 59.94 19.6198C60.0599 19.9797 59.88 20.2797 59.5201 20.3999L33.4201 29.0999H33.1803H33.18Z" fill="#BBBBBB"/>
<path d="M30 34.1999C29.76 34.1999 29.46 34.0198 29.4 33.78C29.2801 33.42 29.46 33.12 29.82 32.9999L59.1599 23.2799C59.5199 23.16 59.8198 23.3399 59.94 23.6998C60.0599 24.0598 59.88 24.3598 59.5201 24.4799L30.1801 34.1999H30.0001H30Z" fill="#BBBBBB"/>
<path d="M32.94 37.1399C32.7 37.1399 32.46 36.9599 32.34 36.72C32.2201 36.42 32.4 36.0601 32.76 35.9399L37.56 34.32C37.86 34.2001 38.2199 34.38 38.3401 34.7399C38.46 35.0399 38.2801 35.3999 37.9201 35.52L33.1201 37.1399C33.06 37.08 33 37.1399 32.9401 37.1399H32.94ZM41.7 34.1399C41.46 34.1399 41.22 33.9598 41.1 33.72C40.9801 33.42 41.16 33.06 41.52 32.9399L46.32 31.32C46.62 31.2001 46.9799 31.3799 47.1001 31.7399C47.22 32.0399 47.0401 32.3999 46.6802 32.52L41.8801 34.1399C41.82 34.08 41.76 34.1399 41.7001 34.1399H41.7ZM50.4601 31.1399C50.22 31.1399 49.98 30.9598 49.8601 30.72C49.7401 30.42 49.92 30.06 50.28 29.9399L55.08 28.32C55.38 28.2 55.7399 28.3799 55.8601 28.7399C55.98 29.0399 55.8001 29.3998 55.4402 29.52L50.6402 31.1399H50.4601H50.4601Z" fill="#BBBBBB"/>
<path d="M26.88 29.0998C26.8201 29.0998 26.7601 29.0998 26.7 29.0399L0.41995 20.3999C0.0599902 20.28 -0.1201 19.9198 3.01972e-05 19.6198C0.11995 19.2598 0.48011 19.1397 0.78013 19.1998L27.0601 27.8399C27.4201 27.9598 27.6002 28.3199 27.4801 28.62C27.4199 28.9198 27.1801 29.0998 26.8801 29.0998L26.88 29.0998Z" fill="#BBBBBB"/>
<path d="M30 34.2C29.9401 34.2 29.8801 34.2 29.82 34.14L0.41995 24.48C0.0599902 24.3601 -0.1201 23.9999 3.01935e-05 23.6999C0.11995 23.34 0.48011 23.1599 0.78013 23.28L30.1801 33C30.5401 33.1199 30.7202 33.4801 30.6001 33.7801C30.5401 34.0801 30.2401 34.2 30.0001 34.2L30 34.2Z" fill="#BBBBBB"/>
<path d="M27.06 37.1398C27 37.1398 26.9401 37.1398 26.8799 37.0798L22.0799 35.4599C21.72 35.34 21.5999 34.9798 21.66 34.6798C21.7799 34.3199 22.1401 34.1997 22.4401 34.2599L27.2401 35.8798C27.6001 35.9997 27.7202 36.3599 27.66 36.6599C27.6001 36.9597 27.3001 37.1398 27.06 37.1398L27.06 37.1398ZM18.3 34.1398C18.2401 34.1398 18.1801 34.1398 18.1199 34.0798L13.3199 32.4599C12.96 32.34 12.8399 31.9798 12.9 31.6798C13.0199 31.3199 13.3801 31.1997 13.6801 31.2599L18.4801 32.8798C18.8401 32.9997 18.9602 33.3599 18.9 33.6599C18.8401 33.9597 18.5401 34.1398 18.3 34.1398L18.3 34.1398ZM9.54002 31.1398C9.48006 31.1398 9.42009 31.1398 9.35994 31.0798L4.55994 29.4599C4.25994 29.3998 4.08005 29.0398 4.19998 28.6798C4.3199 28.3199 4.68006 28.1997 4.98008 28.2599L9.78008 29.8798C10.14 29.9997 10.2602 30.3599 10.2 30.6599C10.0801 31.0197 9.84003 31.1398 9.54005 31.1398L9.54002 31.1398Z" fill="#BBBBBB"/>
<path d="M59.3399 11.3999C59.28 11.3999 59.22 11.3999 59.1599 11.3399L29.9999 1.85992L0.839923 11.3999C0.479963 11.5198 0.179973 11.34 0.0598233 10.98C-0.0600966 10.62 0.119783 10.3201 0.479743 10.1999L29.8197 0.599902C29.9396 0.539942 30.0598 0.539942 30.2396 0.599902L59.5796 10.1999C59.9396 10.3198 60.1197 10.68 59.9995 10.98C59.8798 11.2198 59.6398 11.3999 59.3398 11.3999L59.3399 11.3999Z" fill="#BBBBBB"/>
</g>
<defs>
<clipPath id="clip0_56_2164">
<rect width="60" height="60" fill="white"/>
</clipPath>
</defs>
</svg>
