<svg width="60" height="60" viewBox="0 0 60 60" fill="none" xmlns="http://www.w3.org/2000/svg">
<g clip-path="url(#clip0_56_2155)">
<path d="M49.74 60H10.26C7.44008 60 5.09998 57.7199 5.09998 54.84V33.24C5.09998 30.4201 7.38008 28.08 10.26 28.08H19.02C19.86 28.08 20.5799 27.54 20.82 26.7601L21.36 25.0201C21.78 23.64 23.0401 22.74 24.4799 22.74H35.4C36.84 22.74 38.1 23.64 38.5199 25.0201L39.0599 26.7601C39.3 27.5402 40.0199 28.08 40.8599 28.08H49.6199C52.4398 28.08 54.7799 30.3601 54.7799 33.24V54.84C54.9002 57.7199 52.5602 60 49.7404 60H49.74ZM10.26 29.52C8.15998 29.52 6.47988 31.2001 6.47988 33.3001V54.9001C6.47988 57.0001 8.15998 58.6802 10.26 58.6802H49.74C51.84 58.6802 53.5201 57.0001 53.5201 54.9001V33.3001C53.5201 31.2001 51.84 29.52 49.74 29.52H40.98C39.54 29.52 38.28 28.62 37.8601 27.2399L37.3201 25.4999C37.08 24.7198 36.3601 24.18 35.5201 24.18L24.54 24.1802C23.7 24.1802 22.9801 24.7202 22.74 25.5001L22.2 27.2401C21.7801 28.6202 20.5199 29.5202 19.0801 29.5202L10.26 29.52Z" fill="#BBBBBB"/>
<path d="M30 55.0201C23.58 55.0201 18.36 49.8001 18.36 43.3801C18.36 37.0201 23.58 31.8 30 31.8C36.42 31.8 41.64 37.0201 41.64 43.4401C41.64 49.8001 36.42 55.0201 30 55.0201ZM30 33.1801C24.36 33.1801 19.74 37.8 19.74 43.4401C19.74 49.0802 24.3599 53.7001 30 53.7001C35.6401 53.7001 40.26 49.0802 40.26 43.4401C40.26 37.8 35.6401 33.1801 30 33.1801Z" fill="#BBBBBB"/>
<path d="M30 51.0002C29.6401 51.0002 29.3401 50.7002 29.3401 50.3402C29.3401 49.9803 29.6401 49.6803 30 49.6803C33.42 49.6803 36.1801 46.9203 36.1801 43.5003C36.1801 43.1403 36.4801 42.8403 36.84 42.8403C37.2 42.8403 37.5 43.1403 37.5 43.5003C37.5599 47.5804 34.14 51.0003 29.9999 51.0003L30 51.0002Z" fill="#BBBBBB"/>
<path d="M38.04 19.2001H21.96C20.16 19.2001 18.72 17.76 18.72 15.96V3.24005C18.72 1.44005 20.16 0 21.96 0H37.98C39.78 0 41.22 1.44005 41.22 3.24005V15.9C41.2802 17.76 39.8401 19.2 38.0401 19.2L38.04 19.2001ZM21.96 1.3801C20.9401 1.3801 20.0401 2.22015 20.0401 3.3V15.96C20.0401 16.9799 20.8802 17.8799 21.96 17.8799H37.98C38.9999 17.8799 39.8999 17.0398 39.8999 15.96L39.9001 3.24C39.9001 2.2201 39.06 1.3201 37.9802 1.3201L21.9602 1.3199L21.96 1.3801Z" fill="#BBBBBB"/>
<path d="M35.6999 11.8801C35.34 11.8801 35.04 11.5801 35.04 11.2201V6.06013L25.02 6.05993V11.2199C25.02 11.5799 24.72 11.8799 24.36 11.8799C24.0001 11.8799 23.7001 11.5799 23.7001 11.2199V4.67993H36.4201V11.2199C36.3601 11.5799 36.0601 11.8799 35.7002 11.8799L35.6999 11.8801Z" fill="#BBBBBB"/>
<path d="M34.0799 24.1201H25.9199V17.8201H34.0799V24.1201ZM27.2999 22.7402H32.6999V19.2001H27.2999V22.7402Z" fill="#BBBBBB"/>
<path d="M51.12 37.08H47.9399C46.5598 37.08 45.48 35.94 45.48 34.6201V31.98C45.48 31.6201 45.78 31.3201 46.1399 31.3201C46.4999 31.3201 46.7999 31.6201 46.7999 31.98V34.6201C46.7999 35.2201 47.28 35.7601 47.9399 35.7601H51.12C51.48 35.7601 51.78 36.0601 51.78 36.4201C51.7802 36.78 51.4802 37.08 51.12 37.08Z" fill="#BBBBBB"/>
</g>
<defs>
<clipPath id="clip0_56_2155">
<rect width="60" height="60" fill="white"/>
</clipPath>
</defs>
</svg>
