<svg width="60" height="60" viewBox="0 0 60 60" fill="none" xmlns="http://www.w3.org/2000/svg">
<g clip-path="url(#clip0_56_2148)">
<path d="M31.62 60.0002C30.72 60.0002 30.18 60.0002 30.0001 59.9402C28.92 60.0002 13.6801 60.7203 5.04009 52.0802C4.86001 51.9002 4.80005 51.6603 4.86001 51.4802C4.91997 51.3002 10.02 33.9002 21.96 21.7802C21.96 21.1203 21.8401 19.0203 20.76 15.9002C20.7001 15.6602 18.6001 10.2002 20.5799 6.90023C21.36 5.58033 22.62 4.80024 24.36 4.62014C24.48 4.62014 27.4799 4.32013 30 6.48008C32.5199 4.32013 35.52 4.62014 35.64 4.62014C37.3801 4.86018 38.64 5.64003 39.4201 6.90023C41.4002 10.2002 39.3002 15.7202 39.2401 15.9602C38.1 19.0801 38.0401 21.1802 38.0401 21.8402C49.9801 33.9002 55.0801 51.3602 55.1401 51.5402C55.2 51.7803 55.1401 52.0203 54.96 52.1402C47.76 59.2802 36 60.0002 31.62 60.0002L31.62 60.0002ZM6.17999 51.4802C14.58 59.5202 29.82 58.6802 29.94 58.6802H30C30.18 58.6802 45.36 59.5202 53.76 51.4802C52.9799 48.9603 47.82 33.4202 36.9 22.5002C36.78 22.3803 36.7199 22.2602 36.7199 22.0803C36.7199 21.9604 36.5398 19.5002 37.9798 15.4803C37.9798 15.4203 39.8997 10.3203 38.2798 7.50027C37.6798 6.54033 36.7798 6.00027 35.3997 5.82017C35.3997 5.82017 32.5196 5.52018 30.3597 7.74008C30.1197 7.98011 29.6998 7.98011 29.4597 7.74008C27.2998 5.58013 24.4197 5.82017 24.4197 5.82017C23.0998 6.00025 22.1396 6.54007 21.5396 7.50027C19.8595 10.2602 21.7797 15.4203 21.8396 15.4803C23.2797 19.5604 23.1595 22.0203 23.1595 22.0803C23.1595 22.2002 23.0996 22.3803 22.9794 22.5002C12.1199 33.4202 6.95994 48.9602 6.17994 51.4802H6.17999Z" fill="#BBBBBB"/>
<path d="M35.58 5.8801C35.2201 5.8801 34.98 5.5801 34.98 5.2801V0.6C34.98 0.24004 35.28 0 35.58 0C35.94 0 36.18 0.3 36.18 0.6V5.2199C36.18 5.58005 35.88 5.88005 35.58 5.88005V5.8801Z" fill="#BBBBBB"/>
<path d="M24.42 5.8801C24.06 5.8801 23.82 5.5801 23.82 5.2801V0.6C23.82 0.24004 24.12 0 24.42 0C24.7799 0 25.02 0.3 25.02 0.6V5.2199C25.0801 5.58005 24.7801 5.88005 24.42 5.88005V5.8801Z" fill="#BBBBBB"/>
<path d="M30 23.46C27.4801 23.46 25.0199 23.22 22.5 22.7401H22.44C22.0801 22.6802 21.9 22.3202 21.9599 22.0202C22.0199 21.6603 22.3199 21.4802 22.6798 21.5402H22.7398C27.5398 22.4402 32.4598 22.4402 37.2598 21.5402H37.3198C37.6797 21.4802 37.9797 21.7202 38.0397 22.0202C38.0996 22.3802 37.8596 22.6802 37.5596 22.7401H37.4996C34.9801 23.22 32.5199 23.46 30.0001 23.46H30Z" fill="#BBBBBB"/>
<path d="M30 19.02C27.3 19.02 24.6 18.78 21.96 18.2399H21.9C21.5401 18.18 21.36 17.88 21.42 17.52C21.4799 17.16 21.7799 16.9799 22.1399 17.0399H22.1998C27.4198 17.9999 32.6398 17.9999 37.8598 17.0399H37.9198C38.2797 16.98 38.5797 17.22 38.6397 17.52C38.6996 17.88 38.4596 18.18 38.1596 18.2399H38.0996C35.4 18.7802 32.7001 19.02 30.0001 19.02H30Z" fill="#BBBBBB"/>
</g>
<defs>
<clipPath id="clip0_56_2148">
<rect width="60" height="60" fill="white"/>
</clipPath>
</defs>
</svg>
