<svg width="80" height="44" viewBox="0 0 80 44" fill="none" xmlns="http://www.w3.org/2000/svg">
<path d="M42.7296 44C42.6019 44 42.4741 43.9797 42.3464 43.939C42.2186 43.939 42.0909 43.9186 41.9631 43.8779C40.4728 43.4304 39.4083 42.5557 38.7696 41.2538C38.1309 39.9519 37.8115 38.3856 37.8115 36.5548C37.8115 34.6426 38.0883 32.527 38.6419 30.208C39.1954 27.889 39.9193 25.5294 40.8135 23.129C41.7077 20.6879 42.6444 18.3689 43.6238 16.172C44.6457 13.9343 45.6251 11.9408 46.5618 10.1914C47.4986 8.40129 48.2864 6.99769 48.9251 5.98058C48.2438 6.55016 47.2218 7.4859 45.8593 8.78779C44.4967 10.049 42.9851 11.5543 41.3244 13.3037C39.6638 15.0532 38.0883 16.9246 36.598 18.9182C35.1077 20.9117 33.8941 22.9256 32.9574 24.9598C32.7444 25.4887 32.4251 26.3634 31.9993 27.5839C31.5735 28.7638 31.1903 30.0453 30.8496 31.4286C30.5516 32.8118 30.4025 34.0324 30.4025 35.0902C30.4025 35.9038 30.5303 36.5344 30.7857 36.982C30.7857 37.0227 30.7857 37.0633 30.7857 37.104C30.8283 37.104 30.8496 37.1244 30.8496 37.1651C30.8496 37.5719 30.3386 37.7753 29.3167 37.7753C27.358 37.7753 25.9741 37.2261 25.1651 36.1276C24.3987 34.9884 24.0154 33.5442 24.0154 31.7947C24.0154 29.7198 24.42 27.3805 25.229 24.7767C26.0806 22.1322 27.0387 19.6098 28.1032 17.2094C28.6993 15.8668 29.3806 14.5039 30.147 13.1207C30.9135 11.6967 31.6161 10.4355 32.2548 9.33703C32.9361 8.19787 33.4257 7.40453 33.7238 6.957C32.3612 8.13684 30.807 9.60148 29.0612 11.3509C27.358 13.0596 25.6335 14.9718 23.8877 17.0874C22.1419 19.1623 20.5238 21.3185 19.0335 23.5562C17.5432 25.7531 16.3509 27.9501 15.4567 30.147C14.5626 32.3033 14.1155 34.3375 14.1155 36.2497C14.1155 37.1447 14.3496 37.8567 14.818 38.3856C14.9032 38.5483 14.9458 38.6297 14.9458 38.6297C14.9458 38.7517 14.7329 38.8128 14.3071 38.8128C12.2206 38.8128 10.6451 38.4669 9.58063 37.7753C8.55869 37.043 8.04773 35.8632 8.04773 34.2358C8.04773 34.0324 8.04773 33.8289 8.04773 33.6255C8.09031 33.4221 8.13289 33.1983 8.17547 32.9542C8.30321 31.9371 8.60127 30.5945 9.06966 28.9265C9.58063 27.2178 10.2406 25.3259 11.0497 23.251C11.9013 21.1355 12.8593 18.9792 13.9238 16.7822C15.0309 14.5446 16.2232 12.4087 17.5006 10.3745C17.6284 10.1711 17.9477 9.70319 18.4587 8.97087C19.0122 8.23856 19.5232 7.46556 19.9916 6.65187C20.5025 5.83819 20.758 5.24826 20.758 4.88211C20.758 4.51595 20.5025 4.43458 19.9916 4.638C19.2677 4.88211 18.4161 5.411 17.4367 6.22469C16.4574 7.03837 15.3929 7.97411 14.2432 9.0319C13.0935 10.0897 11.88 11.1271 10.6026 12.1442C9.36772 13.1207 8.09031 13.9547 6.77031 14.6463C5.49289 15.2973 4.23677 15.6227 3.00193 15.6227C2.70387 15.6227 2.38451 15.6024 2.04387 15.5617C1.7458 15.521 1.42645 15.4397 1.0858 15.3176C0.361935 15.0735 0 14.4632 0 13.4868C0 12.5511 0.276774 11.4526 0.830321 10.1914C1.42645 8.8895 2.15032 7.64864 3.00193 6.46879C3.21483 6.14332 3.47032 5.91955 3.76838 5.7975C4.06644 5.63476 4.30064 5.55339 4.47096 5.55339C4.8116 5.55339 4.98193 5.69579 4.98193 5.98058C4.98193 6.10263 4.91806 6.26537 4.79031 6.46879C4.74773 6.63153 4.68386 6.77392 4.5987 6.89598C4.55612 7.01803 4.53483 7.11974 4.53483 7.20111C4.53483 7.4859 4.68386 7.68932 4.98193 7.81137C5.27999 7.89274 5.59934 7.93342 5.93999 7.93342C6.83418 7.93342 8.00514 7.64864 9.45288 7.07906C10.9006 6.50948 12.4548 5.81784 14.1155 5.00416C15.8187 4.14979 17.5006 3.31576 19.1613 2.50208C20.8645 1.68839 22.44 1.05779 23.8877 0.610263C25.3354 0.122051 26.5277 -0.0406876 27.4645 0.12205C28.1883 0.284787 28.827 0.772998 29.3806 1.58668C29.9767 2.40037 30.3599 3.11234 30.5303 3.72261C30.6154 3.96671 30.4877 4.37355 30.147 4.94313C29.8064 5.51271 29.3593 6.14332 28.8057 6.83495C28.2948 7.52658 27.7838 8.17753 27.2728 8.78779C26.7619 9.39806 26.3787 9.86593 26.1232 10.1914C25.5696 10.8423 24.9309 11.6357 24.2071 12.5714C23.4832 13.5072 22.7593 14.4429 22.0354 15.3786C21.3542 16.2737 20.8006 17.0264 20.3748 17.6366C20.1193 18.0435 19.9916 18.3893 19.9916 18.6741C20.0342 18.9182 20.1406 18.9385 20.3109 18.7351C21.2477 17.5552 22.3548 16.2127 23.6322 14.7074C24.9522 13.1613 26.2722 11.6357 27.5922 10.1304C28.9548 8.58437 30.1896 7.24179 31.2967 6.10263C32.4464 4.92279 33.3193 4.12945 33.9154 3.72261C34.1283 3.55987 34.5115 3.35645 35.0651 3.11234C35.6612 2.82755 36.3638 2.68516 37.1728 2.68516C37.6412 2.68516 38.1096 2.74618 38.578 2.86824C39.0464 2.99029 39.5573 3.21405 40.1109 3.53953C41.0051 4.06842 41.4522 4.84142 41.4522 5.85853C41.4522 7.16042 40.7922 8.82848 39.4722 10.8627C38.1522 12.8969 36.598 15.2362 34.8096 17.8807C35.6612 16.8229 36.7044 15.6024 37.9393 14.2191C39.2167 12.7952 40.5154 11.3306 41.8354 9.82524C43.198 8.27924 44.4754 6.85529 45.6677 5.55339C46.9025 4.21081 47.9244 3.11234 48.7335 2.25797C49.5851 1.36292 50.096 0.854366 50.2664 0.732313C50.9902 0.244103 51.5651 0 51.9909 0C52.3315 0 52.736 0.101709 53.2044 0.30513C53.6728 0.508551 54.2689 0.793341 54.9928 1.1595C55.9296 1.60703 56.5896 2.1766 56.9728 2.86824C57.356 3.51918 57.5476 4.2515 57.5476 5.06519C57.5476 6.28571 57.2496 7.54692 56.6534 8.84882C56.0573 10.11 55.4825 11.2288 54.9289 12.2053C54.5031 12.8969 53.8644 14.0767 53.0128 15.7448C52.2038 17.4129 51.3096 19.3454 50.3302 21.5423C49.3509 23.7393 48.3928 26.0176 47.456 28.3773C46.5618 30.7369 45.8167 32.9949 45.2206 35.1512C44.6244 37.2668 44.3264 39.0772 44.3264 40.5825C44.3264 41.1114 44.3689 41.5996 44.4541 42.0472C44.5393 42.4947 44.6883 42.8812 44.9012 43.2067C44.3477 43.7356 43.6238 44 42.7296 44Z" fill="#222222"/>
<path d="M58.7452 39.6976C56.1478 39.6976 54.1678 39.2501 52.8052 38.3551C51.4426 37.46 50.7613 35.914 50.7613 33.7171C50.7613 32.2931 51.0168 30.7064 51.5278 28.957C52.0388 27.2076 52.6775 25.4582 53.4439 23.7087C54.2104 21.9186 55.0194 20.2302 55.871 18.6436C56.7226 17.0569 57.5104 15.6939 58.2342 14.5548C58.9581 13.3749 59.4904 12.5409 59.831 12.0527C60.6826 10.9135 61.6194 9.75404 62.6413 8.5742C63.7058 7.39436 64.8768 6.39759 66.1542 5.58391C67.4742 4.77022 68.9007 4.36338 70.4336 4.36338C71.2426 4.36338 72.0729 4.50578 72.9245 4.79057C73.9039 5.15673 74.3936 5.52288 74.3936 5.88904C74.3936 6.13315 74.1807 6.2552 73.7549 6.2552C73.5845 6.2552 73.329 6.35691 72.9884 6.56033C72.6903 6.72307 72.4136 6.92649 72.1581 7.17059C71.3916 7.90291 70.4761 8.94036 69.4116 10.2829C68.3897 11.6255 67.3039 13.1105 66.1542 14.7379C65.0471 16.3652 63.9826 18.0536 62.9607 19.8031C61.9813 21.5118 61.151 23.1392 60.4697 24.6852C62.3433 22.2034 64.0039 20.0472 65.4516 18.2164C66.942 16.3449 68.4749 14.8396 70.0503 13.7004C70.5187 13.3749 71.1149 13.2122 71.8387 13.2122C73.0736 13.2122 74.1806 13.5173 75.16 14.1276C75.7561 14.5344 76.0542 15.3278 76.0542 16.5076C76.0542 17.5247 75.8626 18.7453 75.4794 20.1692C75.0961 21.5932 74.5852 23.0781 73.9465 24.6241C73.3503 26.1294 72.6903 27.5941 71.9665 29.018L70.8168 31.215C70.689 31.5811 70.6252 31.9676 70.6252 32.3745C70.6252 32.9034 70.7529 33.3712 71.0084 33.7781C71.2639 34.1849 71.6258 34.3883 72.0942 34.3883C72.7329 34.3883 73.4568 33.8595 74.2658 32.8017C74.8619 32.11 75.4155 31.3167 75.9265 30.4216C76.48 29.4859 76.9697 28.6112 77.3955 27.7975C77.8213 26.9838 78.1406 26.3939 78.3535 26.0277C78.4813 25.7429 78.7155 25.6006 79.0561 25.6006C79.3542 25.6006 79.6097 25.7023 79.8226 25.9057C80.0355 26.1091 80.0568 26.3736 79.8864 26.699C79.5032 27.3907 79.0135 28.2654 78.4174 29.3232C77.8639 30.381 77.2252 31.4387 76.5013 32.4965C75.82 33.5136 75.0749 34.3477 74.2658 34.9986C73.4994 35.6089 72.7542 35.914 72.0303 35.914C71.3916 35.914 70.8168 35.7309 70.3058 35.3648C69.8374 34.9579 69.4968 34.4697 69.2839 33.9001C68.1768 35.5682 66.8142 36.9515 65.1962 38.0499C63.5781 39.1484 61.4278 39.6976 58.7452 39.6976ZM57.6594 37.1956C58.2555 37.1956 59.0007 36.687 59.8949 35.6699C60.7891 34.6121 61.7045 33.2899 62.6413 31.7032C63.5781 30.0758 64.451 28.3671 65.26 26.577C66.0691 24.7869 66.6865 23.0985 67.1123 21.5118C67.5807 19.9251 67.7723 18.6842 67.6871 17.7892C67.1336 18.3588 66.4949 19.0707 65.771 19.9251C65.0897 20.7388 64.3871 21.6338 63.6633 22.6103C63.5781 22.7323 63.28 23.1798 62.7691 23.9528C62.3007 24.6852 61.7258 25.6209 61.0446 26.7601C60.3633 27.8585 59.7033 29.018 59.0646 30.2386C58.4258 31.4591 57.8936 32.5982 57.4678 33.656C57.042 34.7138 56.8291 35.5682 56.8291 36.2191C56.8291 36.8701 57.1059 37.1956 57.6594 37.1956Z" fill="#222222"/>
</svg>
