<svg width="24" height="24" viewBox="0 0 24 24" fill="none" xmlns="http://www.w3.org/2000/svg">
<mask id="mask0_46_249" style="mask-type:alpha" maskUnits="userSpaceOnUse" x="0" y="0" width="24" height="24">
<rect width="24" height="24" fill="#C4C4C4"/>
</mask>
<g mask="url(#mask0_46_249)">
<path d="M23.5468 1.49689C23.1374 1.15345 22.4944 1.10431 21.8295 1.36837H21.8285C21.1292 1.64593 2.03537 9.74811 1.25808 10.0791C1.11671 10.1277 -0.118008 10.5835 0.00917513 11.5987C0.122712 12.514 1.11507 12.8931 1.23625 12.9368L6.09049 14.5811C6.41255 15.6417 7.59977 19.5545 7.86233 20.3905C8.02608 20.9116 8.293 21.5963 8.7608 21.7372C9.17128 21.8938 9.57957 21.7507 9.84376 21.5455L12.8116 18.8223L17.6025 22.5186L17.7166 22.5861C18.0419 22.7287 18.3536 22.8 18.6511 22.8C18.8809 22.8 19.1014 22.7573 19.3121 22.672C20.0299 22.3804 20.317 21.7038 20.347 21.6271L23.9256 3.22543C24.144 2.24263 23.8405 1.74259 23.5468 1.49689ZM10.3716 15.2388L8.73405 19.5589L7.0965 14.1588L19.6511 4.97882L10.3716 15.2388Z" fill="#222222"/>
</g>
</svg>
