<svg width="24" height="24" viewBox="0 0 24 24" fill="none" xmlns="http://www.w3.org/2000/svg">
<mask id="mask0_46_246" style="mask-type:alpha" maskUnits="userSpaceOnUse" x="0" y="0" width="24" height="24">
<rect width="24" height="24" fill="#C4C4C4"/>
</mask>
<g mask="url(#mask0_46_246)">
<path fill-rule="evenodd" clip-rule="evenodd" d="M23.4493 5.77512C23.6161 5.21306 23.4493 4.80005 22.6553 4.80005H20.0297C19.3621 4.80005 19.0543 5.15683 18.8874 5.55025C18.8874 5.55025 17.5521 8.83829 15.6606 10.9741C15.0487 11.5923 14.7705 11.789 14.4367 11.789C14.2698 11.789 14.0282 11.5923 14.0282 11.0303V5.77512C14.0282 5.10065 13.8345 4.80005 13.2781 4.80005H9.15213C8.73494 4.80005 8.48403 5.11309 8.48403 5.40977C8.48403 6.04916 9.42974 6.19661 9.52722 7.99522V11.9015C9.52722 12.7579 9.37413 12.9132 9.04032 12.9132C8.15023 12.9132 5.98507 9.61049 4.70093 5.83131C4.44927 5.09676 4.19686 4.80005 3.52583 4.80005H0.900217C0.150043 4.80005 0 5.15683 0 5.55025C0 6.25284 0.89014 9.73759 4.14464 14.3464C6.31429 17.4939 9.37118 19.2 12.1528 19.2C13.8218 19.2 14.0283 18.8211 14.0283 18.1684V15.7895C14.0283 15.0316 14.1864 14.8804 14.7149 14.8804C15.1043 14.8804 15.7719 15.0771 17.3296 16.5946C19.1099 18.3932 19.4034 19.2 20.4047 19.2H23.0304C23.7805 19.2 24.1556 18.8211 23.9392 18.0733C23.7024 17.3279 22.8525 16.2466 21.7247 14.9647C21.1127 14.234 20.1947 13.4472 19.9165 13.0537C19.5271 12.5479 19.6384 12.323 19.9165 11.8734C19.9165 11.8734 23.1155 7.32074 23.4493 5.77512Z" fill="#222222"/>
</g>
</svg>
